<?xml version="1.0" encoding="UTF-8"?>
<svg width="20px" height="20px" viewBox="0 0 20 20" version="1.1" xmlns="http://www.w3.org/2000/svg" xmlns:xlink="http://www.w3.org/1999/xlink">
    <!-- Generator: Sketch 55.1 (78136) - https://sketchapp.com -->
    <title>Shape</title>
    <desc>Created with Sketch.</desc>
    <g id="여행능력시험" stroke="none" stroke-width="1" fill="none" fill-rule="evenodd">
        <g id="15개-정답" transform="translate(-96.000000, -1490.000000)" fill="#FFFFFF" fill-rule="nonzero" stroke="#FFFFFF" stroke-width="0.5">
            <g id="Group-Copy" transform="translate(30.000000, 1345.000000)">
                <g id="Group-2" transform="translate(45.000000, 124.000000)">
                    <g id="share-copy">
                        <path d="M36.4083822,22 C35.4931065,22 34.5776752,22.3584381 33.8613724,23.0357819 L31.4736967,25.4264067 C30.4788318,26.4225005 30.2004252,27.8970308 30.6381658,29.132187 L32.0309766,27.7376558 C32.0707712,27.2993745 32.2698998,26.9007813 32.5882566,26.5820312 L34.9759323,24.1914062 C35.3738783,23.7929688 35.8910524,23.59375 36.4083822,23.59375 C36.9257119,23.59375 37.4430416,23.7929688 37.801193,24.1914062 C38.5572903,24.9484375 38.5572903,26.2232817 37.801193,27.0201567 L35.4135173,29.4107817 C35.0951605,29.7295317 34.6970589,29.9289063 34.2593184,29.96875 L32.8268686,31.4029692 C33.2248145,31.4826567 33.6227605,31.5625 34.0207064,31.5625 C34.9359821,31.5625 35.8514134,31.204062 36.5677161,30.5267183 L38.9553919,28.1360933 C40.3482027,26.741562 40.3482027,24.4303131 38.9553919,23.0357819 C38.2390891,22.3584381 37.3236579,22 36.4083822,22 Z M33.5807636,27.625 C33.3822434,27.625 33.1835678,27.7042565 33.0247516,27.86308 L27.8632243,33.0248447 C27.5455919,33.3424918 27.5455919,33.8589788 27.8632243,34.13692 C28.0220406,34.2957435 28.2207161,34.375 28.4192364,34.375 C28.6177566,34.375 28.8164322,34.2957435 28.9752484,34.13692 L34.1367757,28.9751553 C34.4544081,28.6575082 34.4544081,28.1807271 34.1367757,27.86308 C33.9779594,27.7042565 33.7792839,27.625 33.5807636,27.625 Z M27.9792935,30.4375 C27.0640178,30.4375 26.1485865,30.795938 25.4322838,31.4732817 L23.0446082,33.8639067 C21.6517973,35.258438 21.6517973,37.5299987 23.0446082,38.9245299 C23.7609109,39.6417174 24.676342,40 25.5916177,40 C26.5068935,40 27.4223248,39.641562 28.1386275,38.9642183 L30.5263033,36.5735933 C31.5211682,35.5774995 31.7995748,34.142813 31.3618342,32.867813 L29.9293843,34.2623442 C29.8895897,34.7006255 29.6904612,35.0992188 29.3721044,35.4179688 L26.9844286,37.8085938 C26.6262773,38.2070312 26.1089475,38.40625 25.5916177,38.40625 C25.074288,38.40625 24.5569582,38.2070312 24.1988069,37.8085938 C23.4427096,37.0515625 23.4427096,35.7767183 24.1988069,34.9798433 L26.5864827,32.5892183 C26.9048394,32.2704683 27.302941,32.0710938 27.7406815,32.03125 L29.1731314,30.5970308 C28.7751854,30.5173433 28.3772395,30.4375 27.9792935,30.4375 Z" id="Shape"></path>
                    </g>
                </g>
            </g>
        </g>
    </g>
</svg>